# Blender 4.0.2
# www.blender.org
mtllib chessboard.mtl
o g
v 0.010000 -0.001250 -0.010000
v 0.010000 -0.001250 0.010000
v -0.010000 -0.001250 0.010000
v -0.010000 -0.001250 -0.010000
v -0.010000 -0.001250 0.010000
v 0.010000 -0.001250 0.010000
v 0.010000 -0.000637 0.010000
v -0.010000 -0.000637 0.010000
v -0.010000 0.000637 0.010000
v 0.010000 0.000637 0.010000
v 0.010000 0.001250 0.010000
v -0.010000 0.001250 0.010000
v 0.010000 -0.001250 -0.010000
v -0.010000 -0.001250 -0.010000
v -0.010000 -0.000637 -0.010000
v 0.010000 -0.000637 -0.010000
v 0.010000 0.000637 -0.010000
v -0.010000 0.000637 -0.010000
v -0.010000 0.001250 -0.010000
v 0.010000 0.001250 -0.010000
v 0.010000 -0.001250 0.010000
v 0.010000 -0.001250 -0.010000
v 0.010000 -0.000637 -0.010000
v 0.010000 -0.000637 0.010000
v 0.010000 0.000637 0.010000
v 0.010000 0.000637 -0.010000
v 0.010000 0.001250 -0.010000
v 0.010000 0.001250 0.010000
v -0.010000 -0.001250 -0.010000
v -0.010000 -0.001250 0.010000
v -0.010000 -0.000637 0.010000
v -0.010000 -0.000637 -0.010000
v -0.010000 0.000637 -0.010000
v -0.010000 0.000637 0.010000
v -0.010000 0.001250 0.010000
v -0.010000 0.001250 -0.010000
v 0.009894 0.000515 -0.009894
v 0.009897 0.000408 -0.009897
v -0.009897 0.000408 -0.009897
v -0.009894 0.000515 -0.009894
v 0.009894 0.000515 0.009894
v 0.009897 0.000408 0.009897
v 0.009897 0.000408 -0.009897
v 0.009894 0.000515 -0.009894
v -0.009894 0.000515 0.009894
v -0.009897 0.000408 0.009897
v 0.009897 0.000408 0.009897
v 0.009894 0.000515 0.009894
v -0.009894 0.000515 -0.009894
v -0.009897 0.000408 -0.009897
v -0.009897 0.000408 0.009897
v -0.009894 0.000515 0.009894
v -0.009901 0.000302 -0.009901
v 0.009901 0.000302 -0.009901
v -0.009901 0.000302 0.009901
v -0.009901 0.000302 -0.009901
v 0.009901 0.000302 0.009901
v -0.009901 0.000302 0.009901
v 0.009901 0.000302 -0.009901
v 0.009901 0.000302 0.009901
v 0.009901 -0.000302 -0.009901
v 0.009897 -0.000408 -0.009897
v -0.009897 -0.000408 -0.009897
v -0.009901 -0.000302 -0.009901
v 0.009901 -0.000302 0.009901
v 0.009897 -0.000408 0.009897
v 0.009897 -0.000408 -0.009897
v 0.009901 -0.000302 -0.009901
v -0.009901 -0.000302 0.009901
v -0.009897 -0.000408 0.009897
v 0.009897 -0.000408 0.009897
v 0.009901 -0.000302 0.009901
v -0.009901 -0.000302 -0.009901
v -0.009897 -0.000408 -0.009897
v -0.009897 -0.000408 0.009897
v -0.009901 -0.000302 0.009901
v -0.009894 -0.000515 -0.009894
v 0.009894 -0.000515 -0.009894
v -0.009894 -0.000515 0.009894
v -0.009894 -0.000515 -0.009894
v 0.009894 -0.000515 0.009894
v -0.009894 -0.000515 0.009894
v 0.009894 -0.000515 -0.009894
v 0.009894 -0.000515 0.009894
v 0.010000 0.000197 0.010000
v 0.010000 0.000197 -0.010000
v 0.010000 0.000197 -0.010000
v -0.010000 0.000197 -0.010000
v -0.010000 0.000197 -0.010000
v -0.010000 0.000197 0.010000
v -0.010000 0.000197 0.010000
v 0.010000 0.000197 0.010000
v 0.010000 -0.000197 -0.010000
v 0.010000 -0.000197 0.010000
v 0.010000 -0.000197 0.010000
v -0.010000 -0.000197 0.010000
v -0.010000 -0.000197 0.010000
v -0.010000 -0.000197 -0.010000
v -0.010000 -0.000197 -0.010000
v 0.010000 -0.000197 -0.010000
v -0.010000 -0.000000 -0.010000
v 0.010000 -0.000000 -0.010000
v 0.010000 -0.000000 -0.010000
v 0.010000 0.000000 0.010000
v 0.010000 0.000000 0.010000
v -0.010000 0.000000 0.010000
v -0.010000 0.000000 0.010000
v -0.010000 -0.000000 -0.010000
v -0.010000 0.001250 -0.010000
v -0.009700 0.001250 -0.009700
v 0.009700 0.001250 -0.009700
v 0.010000 0.001250 -0.010000
v 0.009700 0.001250 0.009700
v 0.010000 0.001250 0.010000
v -0.009700 0.001250 0.009700
v -0.010000 0.001250 0.010000
v -0.009400 0.001250 -0.009400
v 0.009400 0.001250 -0.009400
v 0.009400 0.001250 0.009400
v -0.009400 0.001250 0.009400
v -0.009400 0.001250 -0.009400
v -0.009400 0.001020 -0.009400
v 0.009400 0.001020 -0.009400
v 0.009400 0.001250 -0.009400
v 0.009400 0.001250 -0.009400
v 0.009400 0.001020 -0.009400
v 0.009400 0.001020 0.009400
v 0.009400 0.001250 0.009400
v 0.009400 0.001250 0.009400
v 0.009400 0.001020 0.009400
v -0.009400 0.001020 0.009400
v -0.009400 0.001250 0.009400
v -0.009400 0.001250 0.009400
v -0.009400 0.001020 0.009400
v -0.009400 0.001020 -0.009400
v -0.009400 0.001250 -0.009400
v -0.009400 0.001020 -0.009400
v -0.009400 0.001020 -0.007050
v -0.007050 0.001020 -0.007050
v -0.007050 0.001020 -0.009400
v -0.004700 0.001020 -0.007050
v -0.004700 0.001020 -0.009400
v -0.007050 0.001020 -0.004700
v -0.004700 0.001020 -0.004700
v -0.009400 0.001020 -0.004700
v -0.002350 0.001020 -0.007050
v -0.002350 0.001020 -0.009400
v 0.000000 0.001020 -0.007050
v 0.000000 0.001020 -0.009400
v -0.002350 0.001020 -0.004700
v 0.000000 0.001020 -0.004700
v -0.004700 0.001020 -0.002350
v -0.002350 0.001020 -0.002350
v 0.000000 0.001020 -0.002350
v -0.002350 0.001020 -0.000000
v 0.000000 0.001020 -0.000000
v -0.004700 0.001020 -0.000000
v -0.009400 0.001020 -0.002350
v -0.007050 0.001020 -0.002350
v -0.007050 0.001020 -0.000000
v -0.009400 0.001020 -0.000000
v 0.002350 0.001020 -0.007050
v 0.002350 0.001020 -0.009400
v 0.004700 0.001020 -0.007050
v 0.004700 0.001020 -0.009400
v 0.002350 0.001020 -0.004700
v 0.004700 0.001020 -0.004700
v 0.007050 0.001020 -0.007050
v 0.007050 0.001020 -0.009400
v 0.009400 0.001020 -0.007050
v 0.009400 0.001020 -0.009400
v 0.007050 0.001020 -0.004700
v 0.009400 0.001020 -0.004700
v 0.004700 0.001020 -0.002350
v 0.007050 0.001020 -0.002350
v 0.009400 0.001020 -0.002350
v 0.007050 0.001020 -0.000000
v 0.009400 0.001020 -0.000000
v 0.004700 0.001020 -0.000000
v 0.002350 0.001020 -0.002350
v 0.002350 0.001020 -0.000000
v 0.000000 0.001020 0.002350
v 0.002350 0.001020 0.002350
v 0.004700 0.001020 0.002350
v 0.002350 0.001020 0.004700
v 0.004700 0.001020 0.004700
v 0.000000 0.001020 0.004700
v 0.007050 0.001020 0.002350
v 0.009400 0.001020 0.002350
v 0.007050 0.001020 0.004700
v 0.009400 0.001020 0.004700
v 0.004700 0.001020 0.007050
v 0.007050 0.001020 0.007050
v 0.009400 0.001020 0.007050
v 0.007050 0.001020 0.009400
v 0.009400 0.001020 0.009400
v 0.004700 0.001020 0.009400
v 0.000000 0.001020 0.007050
v 0.002350 0.001020 0.007050
v 0.002350 0.001020 0.009400
v 0.000000 0.001020 0.009400
v -0.009400 0.001020 0.002350
v -0.007050 0.001020 0.002350
v -0.004700 0.001020 0.002350
v -0.007050 0.001020 0.004700
v -0.004700 0.001020 0.004700
v -0.009400 0.001020 0.004700
v -0.002350 0.001020 0.002350
v -0.002350 0.001020 0.004700
v -0.004700 0.001020 0.007050
v -0.002350 0.001020 0.007050
v -0.002350 0.001020 0.009400
v -0.004700 0.001020 0.009400
v -0.009400 0.001020 0.007050
v -0.007050 0.001020 0.007050
v -0.007050 0.001020 0.009400
v -0.009400 0.001020 0.009400
vn -0.0306 -0.9991 -0.0306
vn 0.0306 -0.9991 -0.0306
vn 0.0306 -0.9991 0.0306
vn -0.0306 -0.9991 0.0306
vn -0.6922 0.1998 0.6935
vn -0.0307 -0.9991 0.0306
vn 0.6935 0.1998 0.6922
vn -0.5843 0.5631 0.5844
vn -0.6935 -0.1998 0.6922
vn 0.6922 -0.1998 0.6935
vn 0.5843 0.5631 0.5844
vn 0.6922 0.1998 -0.6935
vn 0.0307 -0.9991 -0.0306
vn -0.6935 0.1998 -0.6922
vn 0.5843 0.5631 -0.5844
vn 0.6935 -0.1998 -0.6922
vn -0.6922 -0.1998 -0.6935
vn -0.5843 0.5631 -0.5844
vn 0.0306 -0.9991 0.0307
vn 0.5844 0.5631 0.5843
vn 0.5844 0.5631 -0.5843
vn -0.0306 -0.9991 -0.0307
vn -0.5844 0.5631 -0.5843
vn -0.5844 0.5631 0.5843
vn -0.5965 -0.5370 -0.5966
vn 0.5966 -0.5370 -0.5965
vn 0.7063 0.0481 -0.7063
vn -0.7063 0.0481 -0.7063
vn 0.5965 -0.5370 0.5966
vn 0.7063 0.0481 0.7063
vn -0.5966 -0.5370 0.5965
vn -0.7063 0.0481 0.7063
vn 0.5830 0.5660 -0.5829
vn -0.5829 0.5660 -0.5830
vn -0.5830 0.5660 0.5829
vn 0.5829 0.5660 0.5830
vn -0.5830 -0.5660 -0.5829
vn 0.5829 -0.5660 -0.5830
vn 0.7063 -0.0481 -0.7063
vn -0.7063 -0.0481 -0.7063
vn 0.5830 -0.5660 0.5829
vn 0.7063 -0.0481 0.7063
vn -0.5829 -0.5660 0.5830
vn -0.7063 -0.0481 0.7063
vn 0.5965 0.5370 -0.5966
vn -0.5966 0.5370 -0.5965
vn -0.5965 0.5370 0.5966
vn 0.5966 0.5370 0.5965
vn 0.6427 0.4204 0.6405
vn 0.6405 0.4204 -0.6427
vn -0.6427 0.4204 -0.6405
vn -0.6405 0.4204 0.6427
vn 0.6427 -0.4204 -0.6405
vn 0.6405 -0.4204 0.6427
vn -0.6427 -0.4204 0.6405
vn -0.6405 -0.4204 -0.6427
vn -0.7071 -0.0000 -0.7071
vn 0.7071 -0.0000 -0.7071
vn 0.7071 -0.0000 0.7071
vn -0.7071 -0.0000 0.7071
vn -0.0000 1.0000 -0.0000
vn 0.3370 0.8791 0.3370
vn -0.3370 0.8791 0.3370
vn -0.3370 0.8791 -0.3370
vn 0.3370 0.8791 -0.3370
vn 0.5248 0.6702 0.5248
vn -0.5248 0.6702 0.5248
vn -0.5248 0.6702 -0.5248
vn 0.5248 0.6702 -0.5248
vt 0.003418 0.003418
vt 0.480334 0.003418
vt 0.480334 0.480334
vt 0.003418 0.480334
vt 0.484939 0.608839
vt 0.485281 0.579590
vt 0.962164 0.585166
vt 0.961822 0.614415
vt 0.483887 0.698811
vt 0.484229 0.669562
vt 0.961112 0.675138
vt 0.960770 0.704387
vt 0.484941 0.881788
vt 0.485283 0.852539
vt 0.962166 0.858126
vt 0.961824 0.887374
vt 0.483887 0.971760
vt 0.484229 0.942511
vt 0.961112 0.948097
vt 0.960770 0.977346
vt 0.483887 0.484329
vt 0.483887 0.455078
vt 0.960802 0.455078
vt 0.960802 0.484329
vt 0.483887 0.574307
vt 0.483887 0.545056
vt 0.960802 0.545056
vt 0.960802 0.574307
vt 0.489258 0.738723
vt 0.489258 0.709473
vt 0.966173 0.709473
vt 0.966173 0.738724
vt 0.489258 0.828702
vt 0.489258 0.799451
vt 0.966173 0.799451
vt 0.966173 0.828702
vt 0.958643 0.942275
vt 0.486834 0.936748
vt 0.486807 0.931653
vt 0.958789 0.937182
vt 0.958265 0.539263
vt 0.486424 0.539263
vt 0.486337 0.534169
vt 0.958352 0.534169
vt 0.958642 0.669315
vt 0.486833 0.663799
vt 0.486806 0.658704
vt 0.958789 0.664223
vt 0.963636 0.793658
vt 0.491795 0.793658
vt 0.491708 0.788564
vt 0.963723 0.788564
vt 0.486780 0.926559
vt 0.958936 0.932090
vt 0.491622 0.783470
vt 0.963810 0.783470
vt 0.486779 0.653609
vt 0.958935 0.659130
vt 0.486250 0.529075
vt 0.958439 0.529075
vt 0.959273 0.903327
vt 0.487117 0.897795
vt 0.487263 0.892703
vt 0.959246 0.898232
vt 0.958439 0.500310
vt 0.486250 0.500310
vt 0.486337 0.495216
vt 0.958352 0.495216
vt 0.959271 0.630367
vt 0.487115 0.624846
vt 0.487262 0.619754
vt 0.959244 0.625272
vt 0.963810 0.754705
vt 0.491622 0.754705
vt 0.491708 0.749611
vt 0.963723 0.749611
vt 0.487410 0.887610
vt 0.959219 0.893137
vt 0.491795 0.744517
vt 0.963636 0.744517
vt 0.487408 0.614661
vt 0.959217 0.620178
vt 0.486424 0.490122
vt 0.958265 0.490122
vt 0.483887 0.524072
vt 0.960802 0.524072
vt 0.484475 0.921528
vt 0.961358 0.927115
vt 0.489258 0.778466
vt 0.966173 0.778467
vt 0.484474 0.648579
vt 0.961357 0.654155
vt 0.960802 0.505313
vt 0.483887 0.505313
vt 0.961576 0.635397
vt 0.484693 0.629822
vt 0.966173 0.759708
vt 0.489258 0.759708
vt 0.961578 0.908357
vt 0.484695 0.902771
vt 0.961468 0.917736
vt 0.484585 0.912149
vt 0.960802 0.514693
vt 0.483887 0.514693
vt 0.961467 0.644776
vt 0.484584 0.639200
vt 0.966173 0.769087
vt 0.489258 0.769087
vt 0.480334 0.960802
vt 0.003418 0.960802
vt 0.010572 0.953649
vt 0.473180 0.953649
vt 0.480334 0.483887
vt 0.473180 0.491040
vt 0.003418 0.483887
vt 0.010572 0.491040
vt 0.017725 0.946495
vt 0.466026 0.946495
vt 0.466026 0.498194
vt 0.017725 0.498194
vt 0.969727 0.451719
vt 0.969727 0.003418
vt 0.982889 0.003418
vt 0.982889 0.451719
vt 0.932187 0.847147
vt 0.483887 0.847147
vt 0.483887 0.833984
vt 0.932187 0.833984
vt 0.935547 0.451719
vt 0.935547 0.003418
vt 0.948710 0.003418
vt 0.948710 0.451719
vt 0.969727 0.903379
vt 0.969727 0.455078
vt 0.982889 0.455078
vt 0.982889 0.903379
vt 0.539924 0.451719
vt 0.483887 0.451719
vt 0.483887 0.395681
vt 0.539924 0.395681
vt 0.595962 0.451719
vt 0.595962 0.395681
vt 0.539924 0.339643
vt 0.595962 0.339643
vt 0.483887 0.339643
vt 0.651999 0.451719
vt 0.651999 0.395681
vt 0.708037 0.451719
vt 0.708037 0.395681
vt 0.651999 0.339643
vt 0.708037 0.339643
vt 0.595962 0.283606
vt 0.651999 0.283606
vt 0.708037 0.283606
vt 0.651999 0.227568
vt 0.708037 0.227568
vt 0.595962 0.227568
vt 0.483887 0.283606
vt 0.539924 0.283606
vt 0.539924 0.227568
vt 0.483887 0.227568
vt 0.764075 0.451719
vt 0.764075 0.395681
vt 0.820112 0.451719
vt 0.820112 0.395681
vt 0.764075 0.339643
vt 0.820112 0.339643
vt 0.876150 0.451719
vt 0.876150 0.395681
vt 0.932187 0.451719
vt 0.932187 0.395681
vt 0.876150 0.339643
vt 0.932187 0.339643
vt 0.820112 0.283606
vt 0.876150 0.283606
vt 0.932187 0.283606
vt 0.876150 0.227568
vt 0.932187 0.227568
vt 0.820112 0.227568
vt 0.764075 0.283606
vt 0.764075 0.227568
vt 0.708037 0.171531
vt 0.764075 0.171531
vt 0.820112 0.171531
vt 0.764075 0.115493
vt 0.820112 0.115493
vt 0.708037 0.115493
vt 0.876150 0.171531
vt 0.932187 0.171531
vt 0.876150 0.115493
vt 0.932187 0.115493
vt 0.820112 0.059456
vt 0.876150 0.059456
vt 0.932187 0.059456
vt 0.876150 0.003418
vt 0.932187 0.003418
vt 0.820112 0.003418
vt 0.708037 0.059456
vt 0.764075 0.059456
vt 0.764075 0.003418
vt 0.708037 0.003418
vt 0.483887 0.171531
vt 0.539924 0.171531
vt 0.595962 0.171531
vt 0.539924 0.115493
vt 0.595962 0.115493
vt 0.483887 0.115493
vt 0.651999 0.171531
vt 0.651999 0.115493
vt 0.595962 0.059456
vt 0.651999 0.059456
vt 0.651999 0.003418
vt 0.595962 0.003418
vt 0.483887 0.059456
vt 0.539924 0.059456
vt 0.539924 0.003418
vt 0.483887 0.003418
s 1
usemtl DefaultMaterial
f 4/1/1 1/2/2 2/3/3
f 2/3/3 3/4/4 4/1/1
f 8/5/5 5/6/6 6/7/3
f 6/7/3 7/8/7 8/5/5
f 12/9/8 9/10/9 10/11/10
f 10/11/10 11/12/11 12/9/8
f 16/13/12 13/14/13 14/15/1
f 14/15/1 15/16/14 16/13/12
f 20/17/15 17/18/16 18/19/17
f 18/19/17 19/20/18 20/17/15
f 24/21/7 21/22/19 22/23/2
f 22/23/2 23/24/12 24/21/7
f 28/25/20 25/26/10 26/27/16
f 26/27/16 27/28/21 28/25/20
f 32/29/14 29/30/22 30/31/4
f 30/31/4 31/32/5 32/29/14
f 36/33/23 33/34/17 34/35/9
f 34/35/9 35/36/24 36/33/23
f 40/37/25 37/38/26 38/39/27
f 38/39/27 39/40/28 40/37/25
f 44/41/26 41/42/29 42/43/30
f 42/43/30 43/44/27 44/41/26
f 48/45/29 45/46/31 46/47/32
f 46/47/32 47/48/30 48/45/29
f 52/49/31 49/50/25 50/51/28
f 50/51/28 51/52/32 52/49/31
f 54/53/33 53/54/34 39/40/28
f 39/40/28 38/39/27 54/53/33
f 56/55/34 55/56/35 51/52/32
f 51/52/32 50/51/28 56/55/34
f 58/57/35 57/58/36 47/48/30
f 47/48/30 46/47/32 58/57/35
f 60/59/36 59/60/33 43/44/27
f 43/44/27 42/43/30 60/59/36
f 64/61/37 61/62/38 62/63/39
f 62/63/39 63/64/40 64/61/37
f 68/65/38 65/66/41 66/67/42
f 66/67/42 67/68/39 68/65/38
f 72/69/41 69/70/43 70/71/44
f 70/71/44 71/72/42 72/69/41
f 76/73/43 73/74/37 74/75/40
f 74/75/40 75/76/44 76/73/43
f 78/77/45 77/78/46 63/64/40
f 63/64/40 62/63/39 78/77/45
f 80/79/46 79/80/47 75/76/44
f 75/76/44 74/75/40 80/79/46
f 82/81/47 81/82/48 71/72/42
f 71/72/42 70/71/44 82/81/47
f 84/83/48 83/84/45 67/68/39
f 67/68/39 66/67/42 84/83/48
f 44/41/26 26/27/16 25/26/10
f 25/26/10 41/42/29 44/41/26
f 48/45/29 10/11/10 9/10/9
f 9/10/9 45/46/31 48/45/29
f 52/49/31 34/35/9 33/34/17
f 33/34/17 49/50/25 52/49/31
f 40/37/25 18/19/17 17/18/16
f 17/18/16 37/38/26 40/37/25
f 60/59/36 85/85/49 86/86/50
f 86/86/50 59/60/33 60/59/36
f 54/53/33 87/87/50 88/88/51
f 88/88/51 53/54/34 54/53/33
f 56/55/34 89/89/51 90/90/52
f 90/90/52 55/56/35 56/55/34
f 58/57/35 91/91/52 92/92/49
f 92/92/49 57/58/36 58/57/35
f 68/65/38 93/93/53 94/94/54
f 94/94/54 65/66/41 68/65/38
f 72/69/41 95/95/54 96/96/55
f 96/96/55 69/70/43 72/69/41
f 76/73/43 97/97/55 98/98/56
f 98/98/56 73/74/37 76/73/43
f 64/61/37 99/99/56 100/100/53
f 100/100/53 61/62/38 64/61/37
f 84/83/48 24/21/7 23/24/12
f 23/24/12 83/84/45 84/83/48
f 78/77/45 16/13/12 15/16/14
f 15/16/14 77/78/46 78/77/45
f 80/79/46 32/29/14 31/32/5
f 31/32/5 79/80/47 80/79/46
f 82/81/47 8/5/5 7/8/7
f 7/8/7 81/82/48 82/81/47
f 99/99/56 101/101/57 102/102/58
f 102/102/58 100/100/53 99/99/56
f 87/87/50 102/102/58 101/101/57
f 101/101/57 88/88/51 87/87/50
f 93/93/53 103/103/58 104/104/59
f 104/104/59 94/94/54 93/93/53
f 85/85/49 104/104/59 103/103/58
f 103/103/58 86/86/50 85/85/49
f 95/95/54 105/105/59 106/106/60
f 106/106/60 96/96/55 95/95/54
f 91/91/52 106/106/60 105/105/59
f 105/105/59 92/92/49 91/91/52
f 97/97/55 107/107/60 108/108/57
f 108/108/57 98/98/56 97/97/55
f 89/89/51 108/108/57 107/107/60
f 107/107/60 90/90/52 89/89/51
f 112/109/15 109/110/23 110/111/61
f 110/111/61 111/112/61 112/109/15
f 114/113/20 112/109/15 111/112/61
f 111/112/61 113/114/61 114/113/20
f 116/115/8 114/113/20 113/114/61
f 113/114/61 115/116/61 116/115/8
f 109/110/23 116/115/8 115/116/61
f 115/116/61 110/111/61 109/110/23
f 111/112/61 110/111/61 117/117/62
f 117/117/62 118/118/63 111/112/61
f 113/114/61 111/112/61 118/118/63
f 118/118/63 119/119/64 113/114/61
f 115/116/61 113/114/61 119/119/64
f 119/119/64 120/120/65 115/116/61
f 110/111/61 115/116/61 120/120/65
f 120/120/65 117/117/62 110/111/61
f 124/121/63 121/122/62 122/123/66
f 122/123/66 123/124/67 124/121/63
f 128/125/64 125/126/63 126/127/67
f 126/127/67 127/128/68 128/125/64
f 132/129/65 129/130/64 130/131/68
f 130/131/68 131/132/69 132/129/65
f 136/133/62 133/134/65 134/135/69
f 134/135/69 135/136/66 136/133/62
f 140/137/61 137/138/66 138/139/61
s 0
f 138/139/61 139/140/61 140/137/61
f 142/141/61 140/137/61 139/140/61
f 139/140/61 141/142/61 142/141/61
f 141/142/61 139/140/61 143/143/61
f 143/143/61 144/144/61 141/142/61
f 139/140/61 138/139/61 145/145/61
f 145/145/61 143/143/61 139/140/61
f 147/146/61 142/141/61 141/142/61
f 141/142/61 146/147/61 147/146/61
f 149/148/61 147/146/61 146/147/61
f 146/147/61 148/149/61 149/148/61
f 148/149/61 146/147/61 150/150/61
f 150/150/61 151/151/61 148/149/61
f 146/147/61 141/142/61 144/144/61
f 144/144/61 150/150/61 146/147/61
f 150/150/61 144/144/61 152/152/61
f 152/152/61 153/153/61 150/150/61
f 151/151/61 150/150/61 153/153/61
f 153/153/61 154/154/61 151/151/61
f 154/154/61 153/153/61 155/155/61
f 155/155/61 156/156/61 154/154/61
f 153/153/61 152/152/61 157/157/61
f 157/157/61 155/155/61 153/153/61
f 143/143/61 145/145/61 158/158/61
f 158/158/61 159/159/61 143/143/61
f 144/144/61 143/143/61 159/159/61
f 159/159/61 152/152/61 144/144/61
f 152/152/61 159/159/61 160/160/61
f 160/160/61 157/157/61 152/152/61
f 159/159/61 158/158/61 161/161/61
f 161/161/61 160/160/61 159/159/61
f 163/162/61 149/148/61 148/149/61
f 148/149/61 162/163/61 163/162/61
f 165/164/61 163/162/61 162/163/61
f 162/163/61 164/165/61 165/164/61
f 164/165/61 162/163/61 166/166/61
f 166/166/61 167/167/61 164/165/61
f 162/163/61 148/149/61 151/151/61
f 151/151/61 166/166/61 162/163/61
f 169/168/61 165/164/61 164/165/61
f 164/165/61 168/169/61 169/168/61
s 1
f 171/170/67 169/168/61 168/169/61
f 168/169/61 170/171/61 171/170/67
s 0
f 170/171/61 168/169/61 172/172/61
f 172/172/61 173/173/61 170/171/61
f 168/169/61 164/165/61 167/167/61
f 167/167/61 172/172/61 168/169/61
f 172/172/61 167/167/61 174/174/61
f 174/174/61 175/175/61 172/172/61
f 173/173/61 172/172/61 175/175/61
f 175/175/61 176/176/61 173/173/61
f 176/176/61 175/175/61 177/177/61
f 177/177/61 178/178/61 176/176/61
f 175/175/61 174/174/61 179/179/61
f 179/179/61 177/177/61 175/175/61
f 166/166/61 151/151/61 154/154/61
f 154/154/61 180/180/61 166/166/61
f 167/167/61 166/166/61 180/180/61
f 180/180/61 174/174/61 167/167/61
f 174/174/61 180/180/61 181/181/61
f 181/181/61 179/179/61 174/174/61
f 180/180/61 154/154/61 156/156/61
f 156/156/61 181/181/61 180/180/61
f 181/181/61 156/156/61 182/182/61
f 182/182/61 183/183/61 181/181/61
f 179/179/61 181/181/61 183/183/61
f 183/183/61 184/184/61 179/179/61
f 184/184/61 183/183/61 185/185/61
f 185/185/61 186/186/61 184/184/61
f 183/183/61 182/182/61 187/187/61
f 187/187/61 185/185/61 183/183/61
f 177/177/61 179/179/61 184/184/61
f 184/184/61 188/188/61 177/177/61
f 178/178/61 177/177/61 188/188/61
f 188/188/61 189/189/61 178/178/61
f 189/189/61 188/188/61 190/190/61
f 190/190/61 191/191/61 189/189/61
f 188/188/61 184/184/61 186/186/61
f 186/186/61 190/190/61 188/188/61
f 190/190/61 186/186/61 192/192/61
f 192/192/61 193/193/61 190/190/61
f 191/191/61 190/190/61 193/193/61
f 193/193/61 194/194/61 191/191/61
f 194/194/61 193/193/61 195/195/61
s 1
f 195/195/61 196/196/68 194/194/61
s 0
f 193/193/61 192/192/61 197/197/61
f 197/197/61 195/195/61 193/193/61
f 185/185/61 187/187/61 198/198/61
f 198/198/61 199/199/61 185/185/61
f 186/186/61 185/185/61 199/199/61
f 199/199/61 192/192/61 186/186/61
f 192/192/61 199/199/61 200/200/61
f 200/200/61 197/197/61 192/192/61
f 199/199/61 198/198/61 201/201/61
f 201/201/61 200/200/61 199/199/61
f 160/160/61 161/161/61 202/202/61
f 202/202/61 203/203/61 160/160/61
f 157/157/61 160/160/61 203/203/61
f 203/203/61 204/204/61 157/157/61
f 204/204/61 203/203/61 205/205/61
f 205/205/61 206/206/61 204/204/61
f 203/203/61 202/202/61 207/207/61
f 207/207/61 205/205/61 203/203/61
f 155/155/61 157/157/61 204/204/61
f 204/204/61 208/208/61 155/155/61
f 156/156/61 155/155/61 208/208/61
f 208/208/61 182/182/61 156/156/61
f 182/182/61 208/208/61 209/209/61
f 209/209/61 187/187/61 182/182/61
f 208/208/61 204/204/61 206/206/61
f 206/206/61 209/209/61 208/208/61
f 209/209/61 206/206/61 210/210/61
f 210/210/61 211/211/61 209/209/61
f 187/187/61 209/209/61 211/211/61
f 211/211/61 198/198/61 187/187/61
f 198/198/61 211/211/61 212/212/61
f 212/212/61 201/201/61 198/198/61
f 211/211/61 210/210/61 213/213/61
f 213/213/61 212/212/61 211/211/61
f 205/205/61 207/207/61 214/214/61
f 214/214/61 215/215/61 205/205/61
f 206/206/61 205/205/61 215/215/61
f 215/215/61 210/210/61 206/206/61
f 210/210/61 215/215/61 216/216/61
f 216/216/61 213/213/61 210/210/61
s 1
f 215/215/61 214/214/61 217/217/69
f 217/217/69 216/216/61 215/215/61
